<mxfile modified="2021-10-20T07:22:37.231Z" host="app.diagrams.net" agent="5.0 (Windows NT 10.0; WOW64) AppleWebKit/537.36 (KHTML, like Gecko) Chrome/79.0.3945.79 Safari/537.36" etag="pxjkHsr_YlnTf6RJaLfY" version="15.5.5" type="github">
  <diagram id="Ht1M8jgEwFfnCIfOTk4-" name="Page-1">
    <mxGraphModel dx="1379" dy="-68" grid="0" gridSize="10" guides="1" tooltips="1" connect="1" arrows="1" fold="1" page="1" pageScale="1" pageWidth="1169" pageHeight="827" math="0" shadow="0">
      <root>
        <mxCell id="0" />
        <mxCell id="1" parent="0" />
        <mxCell id="OHFn_rcIb0ek-qpLiRhw-4" style="edgeStyle=orthogonalEdgeStyle;rounded=0;orthogonalLoop=1;jettySize=auto;html=1;entryX=0.5;entryY=0;entryDx=0;entryDy=0;entryPerimeter=0;fontSize=18;fontStyle=1;strokeWidth=3;" edge="1" parent="1" source="OHFn_rcIb0ek-qpLiRhw-1" target="OHFn_rcIb0ek-qpLiRhw-2">
          <mxGeometry relative="1" as="geometry" />
        </mxCell>
        <mxCell id="OHFn_rcIb0ek-qpLiRhw-13" value="构建Cube" style="edgeLabel;html=1;align=center;verticalAlign=middle;resizable=0;points=[];fontSize=18;fontStyle=1" vertex="1" connectable="0" parent="OHFn_rcIb0ek-qpLiRhw-4">
          <mxGeometry x="0.083" y="-2" relative="1" as="geometry">
            <mxPoint as="offset" />
          </mxGeometry>
        </mxCell>
        <mxCell id="OHFn_rcIb0ek-qpLiRhw-19" style="edgeStyle=orthogonalEdgeStyle;rounded=0;orthogonalLoop=1;jettySize=auto;html=1;entryX=0.5;entryY=0;entryDx=0;entryDy=0;entryPerimeter=0;fontSize=18;fontStyle=1;strokeWidth=3;" edge="1" parent="1" source="OHFn_rcIb0ek-qpLiRhw-1" target="OHFn_rcIb0ek-qpLiRhw-3">
          <mxGeometry relative="1" as="geometry" />
        </mxCell>
        <mxCell id="OHFn_rcIb0ek-qpLiRhw-20" value="存储Cube结果" style="edgeLabel;html=1;align=center;verticalAlign=middle;resizable=0;points=[];fontSize=18;fontStyle=1" vertex="1" connectable="0" parent="OHFn_rcIb0ek-qpLiRhw-19">
          <mxGeometry x="-0.6136" relative="1" as="geometry">
            <mxPoint x="55" as="offset" />
          </mxGeometry>
        </mxCell>
        <mxCell id="OHFn_rcIb0ek-qpLiRhw-1" value="&lt;span style=&quot;font-size: 18px&quot;&gt;联机分析处理&lt;br&gt;&lt;/span&gt;kyligence&lt;span style=&quot;font-size: 18px&quot;&gt;&lt;br&gt;&lt;/span&gt;" style="ellipse;whiteSpace=wrap;html=1;fontSize=18;fontStyle=1;fillColor=#f8cecc;strokeColor=#b85450;" vertex="1" parent="1">
          <mxGeometry x="483.69" y="1161" width="266.88" height="133" as="geometry" />
        </mxCell>
        <mxCell id="OHFn_rcIb0ek-qpLiRhw-17" style="edgeStyle=orthogonalEdgeStyle;rounded=0;orthogonalLoop=1;jettySize=auto;html=1;fontSize=18;fontStyle=1;strokeWidth=3;" edge="1" parent="1" source="OHFn_rcIb0ek-qpLiRhw-2" target="OHFn_rcIb0ek-qpLiRhw-23">
          <mxGeometry relative="1" as="geometry">
            <mxPoint x="612.3" y="1400.1" as="targetPoint" />
          </mxGeometry>
        </mxCell>
        <mxCell id="OHFn_rcIb0ek-qpLiRhw-18" value="抽取数据" style="edgeLabel;html=1;align=center;verticalAlign=middle;resizable=0;points=[];fontSize=18;fontStyle=1" vertex="1" connectable="0" parent="OHFn_rcIb0ek-qpLiRhw-17">
          <mxGeometry x="-0.054" y="1" relative="1" as="geometry">
            <mxPoint as="offset" />
          </mxGeometry>
        </mxCell>
        <mxCell id="OHFn_rcIb0ek-qpLiRhw-2" value="spark&lt;br style=&quot;font-size: 18px;&quot;&gt;hive&lt;br style=&quot;font-size: 18px;&quot;&gt;hadoop" style="shape=cylinder3;whiteSpace=wrap;html=1;boundedLbl=1;backgroundOutline=1;size=7;fontSize=18;fontStyle=1;fillColor=#f5f5f5;fontColor=#333333;strokeColor=#666666;" vertex="1" parent="1">
          <mxGeometry x="292" y="1349" width="112" height="104" as="geometry" />
        </mxCell>
        <mxCell id="OHFn_rcIb0ek-qpLiRhw-3" value="hbase" style="shape=cylinder3;whiteSpace=wrap;html=1;boundedLbl=1;backgroundOutline=1;size=15;fontSize=18;fontStyle=1;fillColor=#e1d5e7;strokeColor=#9673a6;" vertex="1" parent="1">
          <mxGeometry x="923.94" y="1332" width="92.06" height="86" as="geometry" />
        </mxCell>
        <mxCell id="OHFn_rcIb0ek-qpLiRhw-12" value="SQL" style="edgeStyle=orthogonalEdgeStyle;rounded=0;orthogonalLoop=1;jettySize=auto;html=1;entryX=0.5;entryY=0;entryDx=0;entryDy=0;fontSize=18;fontStyle=1;strokeWidth=3;" edge="1" parent="1" source="OHFn_rcIb0ek-qpLiRhw-11" target="OHFn_rcIb0ek-qpLiRhw-1">
          <mxGeometry relative="1" as="geometry" />
        </mxCell>
        <mxCell id="OHFn_rcIb0ek-qpLiRhw-11" value="商业智能BI&lt;br style=&quot;font-size: 18px&quot;&gt;tableau" style="strokeWidth=2;html=1;shape=mxgraph.flowchart.start_1;whiteSpace=wrap;fontSize=18;fontStyle=1;fillColor=#fff2cc;strokeColor=#d6b656;" vertex="1" parent="1">
          <mxGeometry x="547.25" y="1000" width="139.75" height="79" as="geometry" />
        </mxCell>
        <mxCell id="OHFn_rcIb0ek-qpLiRhw-23" value="业务数据库mongodb" style="shape=cylinder3;whiteSpace=wrap;html=1;boundedLbl=1;backgroundOutline=1;size=15;fontSize=18;fontStyle=1;fillColor=#e1d5e7;strokeColor=#9673a6;" vertex="1" parent="1">
          <mxGeometry x="612" y="1349" width="104.06" height="100" as="geometry" />
        </mxCell>
      </root>
    </mxGraphModel>
  </diagram>
</mxfile>
